# xmcd
#
# Track frame offsets: 
#        150
#        19387
#        33100
#        48177
#        70020
#        86425
#        98660
#        114752
#        128580
#        144625
#
# Disc length: 2130 seconds
#
# Revision: 3
# Processed by: cddbd v1.4PL0 Copyright (c) Steve Scherf et al.
# Submitted via: ExactAudioCopy v0.90b3
#
DISCID=7208500a
DTITLE=Merle Haggard - Super Hits - Vol. 1
DYEAR=1900
DGENRE=Country
TTITLE0=Are The Good Times Really Over (I Wish A Buck Was Still Silver
TTITLE0=)
TTITLE1=That's The Way Love Goes
TTITLE2=A Friend In California
TTITLE3=Going Where The Lonely Go
TTITLE4=C.C. Waterback (With George Jones)
TTITLE5=Why Am I Drinkin'
TTITLE6=This Song Is For You
TTITLE7=I Had A Beautiful Time
TTITLE8=Someday When Things Are Good
TTITLE9=Kern River
EXTD=
EXTT0=I Wish A Buck Was Still Silver\n
EXTT1=
EXTT2=
EXTT3=
EXTT4=(With George Jones]\n
EXTT5=
EXTT6=
EXTT7=
EXTT8=
EXTT9=
PLAYORDER=
